<?xml version="1.0" encoding="utf-8"?>
<!-- Generator: Adobe Illustrator 22.0.0, SVG Export Plug-In . SVG Version: 6.00 Build 0)  -->
<svg version="1.1" id="Layer_1" xmlns="http://www.w3.org/2000/svg" xmlns:xlink="http://www.w3.org/1999/xlink" x="0px" y="0px"
	 viewBox="0 0 597.6 107.1" style="enable-background:new 0 0 597.6 107.1;" xml:space="preserve">
<style type="text/css">
	.st0{fill:#FFFFFF;}
</style>
<g id="logo_1_">
	<g id="XMLID_1_">
		<polygon id="XMLID_11_" class="st0" points="96.8,101.5 65.2,101.5 35.5,61.7 29.5,69 29.5,101.5 3.8,101.5 3.8,2 29.5,2 
			29.5,47.1 65.1,2 94.8,2 55.9,48 		"/>
		<path id="XMLID_8_" class="st0" d="M202.2,101.5h-31.4L143.8,65h-11.9v36.5h-25.5V1.9h43.1c5.9,0,10.9,0.3,15.2,1
			c4.2,0.7,8.2,2.1,11.9,4.4c3.8,2.2,6.7,5.1,8.9,8.7c2.2,3.5,3.3,8,3.3,13.3c0,7.4-1.7,13.4-5.1,18c-3.4,4.6-8.3,8.5-14.6,11.6
			L202.2,101.5z M162.2,32.4c0-2.5-0.5-4.6-1.5-6.4c-1-1.8-2.8-3.2-5.3-4.2c-1.7-0.7-3.5-0.9-5.8-1.1c-2.3-0.2-5-0.2-8.1-0.2h-11.3
			L130,45.8c3.7,0,7.4,0,11.2,0c1.9,0,3.8,0,5.7,0c2.4,0,5.2,0,7.6-0.6c2.7-0.8,5.2-3.5,6.5-6C161.7,37.5,162.2,35.2,162.2,32.4"/>
		<path id="XMLID_5_" class="st0" d="M311.6,101.5H285l-6.9-20.1h-36.8l-6.9,20.1h-25.9L245.2,2h29.6L311.6,101.5z M271.9,64.5
			l-12.3-37.1l-12.3,37.1H271.9z"/>
		<polygon id="XMLID_4_" class="st0" points="413.7,101.5 387.8,101.5 342.8,33.2 342.8,101.5 319.1,101.5 319.1,2 351.2,2 390,59 
			390,2 413.7,2 		"/>
		<polygon id="XMLID_3_" class="st0" points="500.9,101.5 428.9,101.5 428.9,2 500.9,2 500.9,21.2 453.1,21.2 453.1,39.3 
			492.5,39.3 492.5,58.5 453.1,58.5 453.1,83.4 500.9,83.4 		"/>
		<path id="XMLID_2_" class="st0" d="M559.4,102.5c-7.4,0-14.3-1.1-20.5-3.2c-6.3-2.1-11.6-5.3-16.1-9.5c-4.5-4.2-8-9.5-10.5-15.8
			c-2.5-6.3-3.7-13.6-3.7-21.9c0-7.7,1.2-14.7,3.6-21c2.3-6.3,5.8-11.6,10.3-16.1c4.3-4.3,9.7-7.6,16.1-10c6.4-2.4,13.4-3.5,21-3.5
			c4.2,0,8,0.2,11.3,0.7c3.4,0.5,6.5,1.1,9.3,1.8c3,0.8,5.7,1.7,8.1,2.8c2.4,1,4.6,2,6.4,2.8v23.6h-2.9c-1.2-1-2.8-2.3-4.7-3.7
			c-1.9-1.4-4.1-2.9-6.5-4.2c-2.5-1.4-5.1-2.6-8-3.5c-2.9-1-5.9-1.4-9.2-1.4c-3.6,0-7,0.5-10.3,1.7c-3.2,1.1-6.3,2.9-9,5.5
			c-2.6,2.5-4.8,5.8-6.4,9.8c-1.6,4.1-2.4,9-2.4,14.9c0,6.1,0.9,11.2,2.7,15.2c1.7,4.1,4,7.3,6.6,9.6c2.7,2.4,5.8,4.1,9.1,5.1
			c3.3,1,6.7,1.5,9.9,1.5c3.1,0,6.2-0.5,9.3-1.4c3.1-0.9,5.9-2.1,8.5-3.7c2.2-1.2,4.2-2.6,6.1-4c1.9-1.4,3.4-2.7,4.6-3.7h2.7v23.2
			c-2.5,1.1-4.9,2.1-7.2,3.1c-2.3,1-4.7,1.8-7.1,2.5c-3.3,0.9-6.3,1.6-9.2,2.1C568.3,102.3,564.4,102.5,559.4,102.5"/>
	</g>
</g>
</svg>
